<svg xmlns="http://www.w3.org/2000/svg" fill="none" viewBox="0 0 40 41">
<mask id="a" width="40" height="41" x="0" y="0" maskUnits="userSpaceOnUse" style="mask-type:alpha">
	<path fill="#fff" d="M0 .479h40v40H0z"/>
</mask>
<g mask="url(#a)">
	<path fill="currentColor" d="M16.615 27.212c.41 0 .753-.138 1.028-.415.275-.277.413-.62.413-1.03V15.192c0-.41-.139-.753-.417-1.03a1.405 1.405 0 0 0-1.033-.416c-.41 0-.755.139-1.033.416-.279.277-.418.62-.418 1.03v10.575c0 .41.14.753.42 1.03.28.277.626.415 1.04.415Zm6.79 0c.41 0 .753-.138 1.028-.415.275-.277.412-.62.412-1.03V15.192c0-.41-.139-.753-.416-1.03a1.405 1.405 0 0 0-1.033-.416c-.411 0-.756.139-1.034.416-.278.277-.417.62-.417 1.03v10.575c0 .41.14.753.42 1.03.28.277.626.415 1.04.415Zm-3.396 10.213c-2.346 0-4.547-.444-6.604-1.332A17.145 17.145 0 0 1 8.02 32.46a17.142 17.142 0 0 1-3.633-5.387c-.887-2.057-1.331-4.26-1.331-6.607 0-2.347.444-4.55 1.331-6.607.888-2.058 2.099-3.85 3.632-5.375 1.534-1.525 3.33-2.733 5.387-3.622 2.058-.89 4.26-1.335 6.608-1.335 2.347 0 4.55.445 6.609 1.334 2.058.89 3.85 2.096 5.375 3.621s2.732 3.318 3.621 5.379c.89 2.06 1.335 4.264 1.335 6.61 0 2.347-.445 4.548-1.335 6.605-.89 2.056-2.097 3.85-3.622 5.38-1.525 1.53-3.318 2.741-5.379 3.632-2.06.891-4.263 1.337-6.608 1.337Zm.005-3.156c3.835 0 7.09-1.341 9.764-4.022 2.674-2.681 4.012-5.942 4.012-9.782 0-3.834-1.336-7.089-4.007-9.763-2.671-2.675-5.933-4.012-9.786-4.012-3.828 0-7.082 1.336-9.764 4.007-2.681 2.67-4.022 5.933-4.022 9.786 0 3.827 1.34 7.082 4.022 9.763 2.68 2.682 5.941 4.023 9.781 4.023Z"/>
</g>
</svg>